<?xml version="1.0" encoding="utf-8"?>
<!-- Generator: Adobe Illustrator 27.5.0, SVG Export Plug-In . SVG Version: 6.00 Build 0)  -->
<svg version="1.1" xmlns="http://www.w3.org/2000/svg" xmlns:xlink="http://www.w3.org/1999/xlink" x="0px" y="0px"
	 viewBox="0 0 2200 2200" style="enable-background:new 0 0 2200 2200;" xml:space="preserve">
<g id="background">
	<rect style="fill:#FFFFFF;" width="2200" height="2200"/>
</g>
<g id="Objects">
	<g>
		<path style="fill:#4AC2CC;" d="M1459.833,1363.999c49.643-75.037,80.18-167.819,90.763-275.768v-0.004
			c7.588-77.476,4.548-154.568,0.133-226.336c-2.841-46.205-34.937-84.831-79.864-96.115
			c-178.97-44.95-268.441-100.505-305.846-129.621c-38.281-29.798-91.754-29.799-130.037,0
			c-37.404,29.116-126.876,84.671-305.847,129.621c-44.927,11.285-77.022,49.91-79.863,96.115
			c-4.415,71.769-7.455,148.861,0.133,226.341c10.583,107.949,41.12,200.731,90.762,275.766
			c33.199,50.188,79.642,98.421,138.037,143.357c49.719,38.259,108.45,74.445,174.564,107.555
			c14.788,7.404,31.01,11.107,47.232,11.107c16.222,0,32.444-3.703,47.232-11.108c66.114-33.108,124.846-69.295,174.564-107.554
			C1380.192,1462.418,1426.635,1414.186,1459.833,1363.999z M1279.106,1451.879c-46.181,35.537-101.095,69.329-163.218,100.439
			c-9.949,4.98-21.828,4.98-31.777,0c-62.123-31.11-117.037-64.902-163.218-100.439c-52.257-40.213-93.42-82.774-122.346-126.503
			c-43.28-65.419-70.02-147.504-79.478-243.971c-7.109-72.596-4.168-146.34,0.068-215.217c0.962-15.629,11.831-28.699,27.048-32.521
			c82.163-20.636,234.522-66.56,331.793-142.274c6.482-5.046,14.252-7.569,22.021-7.569c7.77,0,15.538,2.523,22.021,7.569
			c97.27,75.714,249.629,121.639,331.791,142.274c15.218,3.822,26.087,16.891,27.049,32.521
			c4.236,68.877,7.178,142.621,0.068,215.213c-9.458,96.471-36.197,178.556-79.479,243.977
			C1372.526,1369.104,1331.363,1411.666,1279.106,1451.879z"/>
		<path style="fill:#293D7F;" d="M1100,949.369c-53.996,0-97.77,43.775-97.77,97.77c0,36.758,20.285,68.776,50.276,85.473
			l-15.651,128.99c-1.968,16.233,10.703,30.539,27.052,30.539h72.188c16.349,0,29.02-14.307,27.052-30.539l-15.651-128.99
			c29.991-16.698,50.276-48.715,50.276-85.473C1197.77,993.143,1153.996,949.369,1100,949.369z"/>
		<path style="fill:#293D7F;" d="M1075,379.33v217.02c8.2-1.68,16.58-2.54,25-2.54s16.8,0.86,25,2.54V379.921
			c27.923-9.95,47.917-36.609,47.917-67.949c0-39.834-32.292-72.126-72.126-72.126c-39.834,0-72.126,32.292-72.126,72.126
			C1028.665,342.715,1047.908,368.949,1075,379.33z"/>
		<path style="fill:#293D7F;" d="M1899.148,1004.569c-30.742,0-56.975,19.241-67.357,46.331H1573.51
			c-0.72,12.73-1.67,25.5-2.91,38.3l-0.1,0.98c-0.35,3.59-0.73,7.16-1.12,10.72h261.818c9.949,27.926,36.609,47.921,67.95,47.921
			c39.834,0,72.126-32.292,72.126-72.126S1938.982,1004.569,1899.148,1004.569z"/>
		<path style="fill:#293D7F;" d="M1839.94,735.263v78.948c0,8.27-6.73,15-15,15h-260.22c3.26,10.01,5.3,20.55,5.97,31.45
			c0.38,6.14,0.75,12.33,1.1,18.55h253.15c35.84,0,65-29.16,65-65v-78.945c27.513-10.166,47.13-36.626,47.13-67.672
			c0-39.834-32.292-72.126-72.126-72.126s-72.126,32.292-72.126,72.126C1792.818,698.637,1812.431,725.094,1839.94,735.263z"/>
		<path style="fill:#293D7F;" d="M1376.16,717.52l-0.01-221.3c0-8.27,6.73-15,15-15h218.497
			c10.167,27.513,36.626,47.129,67.671,47.129c39.834,0,72.126-32.292,72.126-72.126c0-39.834-32.292-72.126-72.126-72.126
			c-31.043,0-57.501,19.614-67.669,47.123h-218.5c-35.84,0-65,29.16-65,65l0.01,203.28
			C1341.55,705.49,1358.18,711.53,1376.16,717.52z"/>
		<path style="fill:#293D7F;" d="M1125,1820.079V1643.5c-8.21,1.66-16.6,2.52-25,2.52s-16.79-0.86-25-2.52v177.17
			c-27.092,10.38-46.335,36.615-46.335,67.358c0,39.834,32.292,72.126,72.126,72.126c39.834,0,72.126-32.292,72.126-72.126
			C1172.917,1856.689,1152.923,1830.029,1125,1820.079z"/>
		<path style="fill:#293D7F;" d="M1889.94,1418.125v-78.945c0-35.84-29.16-65-65-65H1528.3c-6.71,17.28-14.13,33.95-22.27,50h318.91
			c8.27,0,15,6.73,15,15v78.948c-27.509,10.168-47.122,36.626-47.122,67.669c0,39.834,32.292,72.126,72.126,72.126
			s72.126-32.292,72.126-72.126C1937.069,1454.751,1917.453,1428.291,1889.94,1418.125z"/>
		<path style="fill:#293D7F;" d="M1677.319,1625.041c-31.045,0-57.505,19.616-67.671,47.129H1391.15c-8.27,0-15-6.73-15-15
			l0.01-168.77c-13.31,11.81-27.37,23.41-42.17,34.8c-2.59,1.99-5.2,3.97-7.83,5.95l-0.01,128.02c0,35.84,29.16,65,65,65h218.5
			c10.168,27.509,36.626,47.123,67.669,47.123c39.834,0,72.126-32.292,72.126-72.126
			C1749.445,1657.333,1717.153,1625.041,1677.319,1625.041z"/>
		<path style="fill:#293D7F;" d="M368.803,1100.9H630.62c-0.39-3.56-0.77-7.13-1.12-10.72c-1.28-13.12-2.27-26.23-3-39.28H368.209
			c-10.381-27.09-36.615-46.331-67.357-46.331c-39.834,0-72.126,32.292-72.126,72.126s32.292,72.126,72.126,72.126
			C332.193,1148.821,358.854,1128.826,368.803,1100.9z"/>
		<path style="fill:#293D7F;" d="M310.06,735.266v78.945c0,35.84,29.16,65,65,65h253.15c0.35-6.22,0.72-12.4,1.1-18.55
			c0.67-10.9,2.71-21.44,5.97-31.45H375.06c-8.27,0-15-6.73-15-15v-78.948c27.509-10.168,47.122-36.626,47.122-67.669
			c0-39.834-32.292-72.126-72.126-72.126s-72.126,32.292-72.126,72.126C262.931,698.639,282.547,725.099,310.06,735.266z"/>
		<path style="fill:#293D7F;" d="M522.681,528.349c31.045,0,57.505-19.617,67.671-47.129H808.85c8.27,0,15,6.73,15,15l-0.01,221.3
			c17.98-5.99,34.61-12.03,50-18.02l0.01-203.28c0-35.84-29.16-65-65-65h-218.5c-10.168-27.509-36.626-47.123-67.669-47.123
			c-39.834,0-72.126,32.292-72.126,72.126C450.555,496.057,482.847,528.349,522.681,528.349z"/>
		<path style="fill:#293D7F;" d="M360.06,1418.128v-78.948c0-8.27,6.73-15,15-15h318.91c-8.14-16.05-15.56-32.72-22.27-50H375.06
			c-35.84,0-65,29.16-65,65v78.945c-27.513,10.166-47.129,36.626-47.129,67.672c0,39.834,32.292,72.126,72.126,72.126
			s72.126-32.292,72.126-72.126C407.182,1454.754,387.569,1428.296,360.06,1418.128z"/>
		<path style="fill:#293D7F;" d="M866.01,1523.2c-14.8-11.39-28.86-22.99-42.17-34.8l0.01,168.77c0,8.27-6.73,15-15,15H590.352
			c-10.167-27.512-36.626-47.129-67.671-47.129c-39.834,0-72.126,32.292-72.126,72.126c0,39.834,32.292,72.126,72.126,72.126
			c31.043,0,57.501-19.614,67.669-47.123h218.5c35.84,0,65-29.16,65-65l-0.01-128.02C871.21,1527.17,868.6,1525.19,866.01,1523.2z"
			/>
	</g>
</g>
</svg>
